<?xml version="1.0" encoding="utf-8"?>
<!-- Generator: Adobe Illustrator 26.1.0, SVG Export Plug-In . SVG Version: 6.00 Build 0)  -->
<svg version="1.1" id="Capa_1" xmlns="http://www.w3.org/2000/svg" xmlns:xlink="http://www.w3.org/1999/xlink" x="0px" y="0px"
	 viewBox="0 0 500 235.3" style="enable-background:new 0 0 500 235.3;" xml:space="preserve">
<style type="text/css">
	.st0{fill-rule:evenodd;clip-rule:evenodd;fill:#E6002D;}
	.st1{fill-rule:evenodd;clip-rule:evenodd;fill:#FFFFFF;}
</style>
<g>
	<path class="st0" d="M236.9,151.1v-32.6H284v32.6h11.6V80.6H284v27.8h-47.2V80.6h-11.7v70.5H236.9z M338.7,138.6
		c-3.7,2.5-8.8,3.9-14.3,3.9c-6.9,0-11.6-3-11.6-7.5c0-4.6,3.2-6.8,11.4-7.8l11.3-1.3c4.5-0.5,7.3-1.1,9.1-2.3v5.3
		C344.6,132.6,342.5,136.1,338.7,138.6 M345.4,143.6c1.2,5.5,5.1,6.3,9.3,6.3c2.6,0,5.6-0.2,7.9-0.6l0.5-0.1v-7.9l-0.7,0.1
		c-0.9,0.2-2.3,0.4-3.4,0.4c-2.8,0-3.9-1.1-3.9-3.8v-27.2c0-13-15.4-14.9-24.6-14.9c-16.8,0-25.2,5.7-26.4,18.1l-0.1,0.6h10.5v-0.5
		c0.2-6.4,5.3-9.5,15.6-9.5c10.2,0,14.5,2.3,14.5,7.8c0,4-2.8,4.9-8.6,5.5l-11.4,1.2c-16.5,1.7-22.9,6.3-22.9,16.3
		c0,4.7,2.1,15.8,21.8,15.8C330.9,151.1,340.6,148.7,345.4,143.6 M409,128.8c0,3.8-2.1,7.3-5.9,9.8c-3.7,2.5-8.8,3.9-14.3,3.9
		c-6.9,0-11.6-3-11.6-7.5c0-4.6,3.2-6.8,11.4-7.8l11.3-1.3c4.5-0.5,7.3-1.1,9.1-2.3C409,123.6,409,128.8,409,128.8z M426.7,141.5
		c-1.1,0.2-2.2,0.3-3.4,0.4c-2.8,0-3.9-1.1-3.9-3.8v-27.2c0-13-15.4-14.9-24.6-14.9c-16.8,0-25.2,5.7-26.4,18.1l-0.1,0.6h10.5v-0.5
		c0.2-6.4,5.3-9.5,15.6-9.5c10.2,0,14.5,2.3,14.5,7.8c0,4-2.8,4.9-8.6,5.5l-11.3,1c-16.5,1.7-22.9,6.3-22.9,16.3
		c0,4.7,2.1,15.8,21.8,15.8c7.4,0,17.1-2.3,21.9-7.5c1.2,5.5,5.1,6.3,9.3,6.3c2.6,0,5.6-0.2,7.9-0.6l0.5-0.1v-7.9
		C427.4,141.4,426.7,141.5,426.7,141.5z M430.5,132.3v0.6c0.9,12.1,9.7,18.2,26.3,18.2c8,0,14.3-1.5,18.7-4.3
		c4.7-3.1,7.1-7.6,7.1-13.5c0-7.8-5.7-12.3-18-14l-13.6-1.8c-6.6-0.9-7.9-2.7-7.9-5.7c0-2.5,1.3-4.4,4-5.6c2.2-1,5.3-1.6,8.7-1.6
		c10.3,0,14.3,4.6,14.5,9v0.5H481l-0.1-0.6c-1-11.3-9.9-17.5-25.1-17.5c-7.1,0-13,1.5-17.1,4.4c-4.2,3-6.4,7.3-6.4,12.4
		c0,8.3,7.1,13,14.1,14l15.8,2.1c7.6,1,9,3.1,9,6.2c0,1.4-0.5,3.3-2.8,4.8c-2.5,1.7-6.6,2.5-12,2.5c-11.3,0-15.3-5-15.3-9.6v-0.5
		H430.5z"/>
	<path class="st1" d="M258.9,163.3h-33.7v46h7.3v-20h25.1v-6.9h-25.1v-12.1h26.4V163.3z M280,163.3v0.5c-0.4,5.1-4.8,7.7-12.8,7.7
		H265v6h13.4v31.7h8v-46C286.5,163.3,280,163.3,280,163.3z M347.8,170.3v-6.9H308v6.9h16.2v39h7.5v-39H347.8z M363.4,181.5
		c5.5,0,9.4,2.9,10.4,7.6h-21.3C353.6,184.6,357.9,181.5,363.4,181.5 M363.7,175.6c-5.9,0-10.9,1.7-14.2,5c-3.1,3-4.7,7.2-4.7,11.8
		c0,10.2,7.5,16.9,19,16.9c6,0,13.6-2.8,16.9-10.6l0.3-0.7h-7.6l-0.1,0.3c-2.2,4.6-7.6,5.1-9.8,5.1c-4.9,0-10.3-3-11.1-8.6h29.2
		v-1.3C381.4,180.3,372.3,175.6,363.7,175.6 M409.9,195.7c0,2.2-1.2,4.3-3.4,5.8c-2.2,1.5-5.2,2.3-8.3,2.3c-4,0-6.7-1.7-6.7-4.3
		c0-2.7,1.8-3.9,6.6-4.5l6.7-0.8c2.4-0.3,4.1-0.6,5.2-1.2L409.9,195.7L409.9,195.7z M420.6,203.1c-0.6,0.1-1.3,0.2-2,0.2
		c-1.5,0-2.1-0.6-2.1-2.1v-16.4c0-8-9.3-9.2-14.8-9.2c-10.1,0-15.1,3.5-15.9,11.1l-0.1,0.6h6.7v-0.5c0.1-3.7,3.1-5.6,9-5.6
		s8.4,1.3,8.4,4.5c0,2.2-1.5,2.8-4.9,3.1l-6.7,0.7c-9.8,1-13.8,3.9-13.8,10c0,2.9,1.3,9.7,13.1,9.7c4.3,0,9.9-1.4,12.9-4.3
		c0.8,3.2,3.3,3.6,5.6,3.6c1.6,0,3.4-0.1,4.7-0.4l0.4-0.1v-5L420.6,203.1L420.6,203.1z M482.6,187.3c0-9.2-7.9-11.7-12.6-11.7
		c-5.4,0-9.5,1.7-12.7,5.5c-2.4-3.5-6.2-5.5-10.8-5.5c-3.1,0-8.4,0.7-11.9,4.9v-3.8h-7.1v32.6h7.1v-18.7c0-2.7,1-5,2.9-6.6
		c1.8-1.4,4.2-2.2,6.9-2.2c3.2,0,7.1,1.2,7.1,7v20.6h7.1v-19.6c0-2.6,1-4.6,2.9-6c1.7-1.2,4.2-1.9,6.9-1.9c3.2,0,7.1,1.2,7.1,7v20.6
		h7.1V187.3z"/>
	<path class="st0" d="M112.7,204c-15.9,0-30.2-6.4-40.8-16.8h16.4c0,0,47.1-83.9,47.3-84.3c0.2-0.3,0.1-0.6-0.2-0.6h-19.2
		c-0.4,0-0.4,0.1-0.6,0.3c-0.1,0.2-26.6,46.8-26.6,46.8H54.5c-0.1-1.5-0.2-3-0.2-4.4c0-32.6,26.1-59.1,58.4-59.1
		c16.4,0,31.3,6.9,41.9,18c-4.6,7.9-25.3,43.4-28.1,48.5c-1.6-3.8-9.1-3-12.9-3.1c-1.7,2.8-9.5,17.8-9.5,17.8s4.3-0.1,8.2,0
		c3.8,0.1,4.2,4,2.7,6.6c-1.5,2.5-7.7,13.5-7.7,13.5h19.8c0,0,24.3-43,38.2-67.4c3.7,7.9,5.6,16.5,5.6,25.2
		C171.1,177.6,144.9,204,112.7,204 M58.6,167.2h20.2l-9.7,17C64.6,179.1,61.1,173.4,58.6,167.2 M112.7,68.4
		C70.9,68.4,37,102.7,37,145c0,1.5,0,3,0.1,4.4h-9.9c-0.6,0-0.8,0.3-1.1,0.7c-0.2,0.4-8.9,16-9.2,16.4c-0.2,0.4-0.2,0.6,0.3,0.6
		h22.9c9.4,31.5,38.3,54.4,72.5,54.4c41.8,0,75.7-34.3,75.7-76.6C188.4,102.7,154.6,68.4,112.7,68.4"/>
	<path class="st1" d="M289.5,166.2c0.1,0,0.2,0,0.4,0c0.1,0,0.2,0,0.3-0.1c0.1,0,0.2-0.1,0.2-0.2c0.1-0.1,0.1-0.2,0.1-0.3
		s0-0.2-0.1-0.3c0-0.1-0.1-0.1-0.2-0.2c-0.1,0-0.2-0.1-0.3-0.1c-0.1,0-0.2,0-0.3,0h-0.7v1.1h0.6V166.2z M289.7,164.6
		c0.4,0,0.7,0.1,0.9,0.3c0.2,0.2,0.3,0.4,0.3,0.8c0,0.3-0.1,0.6-0.3,0.7c-0.2,0.2-0.4,0.2-0.7,0.3l1,1.6h-0.6l-1-1.5h-0.6v1.5h-0.6
		v-3.6C288.4,164.6,289.7,164.6,289.7,164.6z M287.2,167.4c0.5,1.3,1.9,1.9,3.2,1.4c0.3-0.1,0.7-0.3,0.9-0.6
		c0.2-0.2,0.4-0.5,0.5-0.8s0.2-0.7,0.2-1c0-0.4-0.1-0.7-0.2-1c-0.2-0.6-0.7-1.1-1.3-1.4c-0.3-0.1-0.6-0.2-1-0.2c-1,0-2,0.6-2.3,1.6
		c-0.1,0.3-0.2,0.7-0.2,1C287,166.8,287.1,167.1,287.2,167.4z M286.7,165.2c0.7-1.5,2.5-2.3,4-1.6c1.1,0.5,1.9,1.6,1.9,2.8
		c0,0.8-0.3,1.6-0.9,2.2c-0.6,0.6-1.3,0.9-2.2,0.9c-0.8,0-1.6-0.3-2.2-0.9C286.5,167.7,286.2,166.4,286.7,165.2z"/>
</g>
</svg>
